<mxfile host="app.diagrams.net" modified="2021-08-16T06:50:23.413Z" agent="5.0 (Windows NT 10.0; Win64; x64) AppleWebKit/537.36 (KHTML, like Gecko) Chrome/92.0.4515.131 Safari/537.36 Edg/92.0.902.73" etag="6noe_h7_k9obeuW5igsB" version="14.9.6" type="github">
  <diagram name="Page-1" id="8ce9d11a-91a2-4d17-14d8-a56ed91bf033">
    <mxGraphModel dx="1038" dy="556" grid="1" gridSize="10" guides="1" tooltips="1" connect="1" arrows="1" fold="1" page="1" pageScale="1" pageWidth="1100" pageHeight="850" background="none" math="0" shadow="0">
      <root>
        <mxCell id="0" />
        <mxCell id="1" parent="0" />
        <mxCell id="17ea667e15c223fc-28" style="edgeStyle=orthogonalEdgeStyle;rounded=1;html=1;labelBackgroundColor=none;startArrow=none;startFill=0;startSize=5;endArrow=classicThin;endFill=1;endSize=5;jettySize=auto;orthogonalLoop=1;strokeWidth=1;fontFamily=Verdana;fontSize=8;exitX=0.5;exitY=1;exitDx=0;exitDy=0;" parent="1" source="17ea667e15c223fc-1" target="17ea667e15c223fc-2" edge="1">
          <mxGeometry relative="1" as="geometry" />
        </mxCell>
        <mxCell id="17ea667e15c223fc-1" value="Потребность в создании АРМ" style="shape=hexagon;perimeter=hexagonPerimeter;whiteSpace=wrap;html=1;rounded=0;shadow=0;labelBackgroundColor=none;strokeWidth=1;fontFamily=Verdana;fontSize=12;align=center;fillColor=#f8cecc;strokeColor=#b85450;" parent="1" vertex="1">
          <mxGeometry x="500" y="30" width="120" height="80" as="geometry" />
        </mxCell>
        <mxCell id="s-t7A4aG990jGZDkexvC-6" style="edgeStyle=orthogonalEdgeStyle;rounded=0;orthogonalLoop=1;jettySize=auto;html=1;exitX=1;exitY=0.5;exitDx=0;exitDy=0;entryX=0;entryY=0.5;entryDx=0;entryDy=0;" edge="1" parent="1" source="17ea667e15c223fc-2" target="s-t7A4aG990jGZDkexvC-5">
          <mxGeometry relative="1" as="geometry" />
        </mxCell>
        <mxCell id="s-t7A4aG990jGZDkexvC-8" style="edgeStyle=orthogonalEdgeStyle;rounded=0;orthogonalLoop=1;jettySize=auto;html=1;" edge="1" parent="1" source="17ea667e15c223fc-2" target="s-t7A4aG990jGZDkexvC-7">
          <mxGeometry relative="1" as="geometry" />
        </mxCell>
        <mxCell id="17ea667e15c223fc-2" value="Переход" style="rounded=1;whiteSpace=wrap;html=1;shadow=0;labelBackgroundColor=none;strokeWidth=1;fontFamily=Verdana;fontSize=12;align=center;fillColor=#d5e8d4;strokeColor=#82b366;" parent="1" vertex="1">
          <mxGeometry x="500" y="160" width="120" height="80" as="geometry" />
        </mxCell>
        <mxCell id="s-t7A4aG990jGZDkexvC-24" style="edgeStyle=orthogonalEdgeStyle;rounded=0;orthogonalLoop=1;jettySize=auto;html=1;exitX=0;exitY=0.5;exitDx=0;exitDy=0;" edge="1" parent="1" source="17ea667e15c223fc-3" target="s-t7A4aG990jGZDkexvC-22">
          <mxGeometry relative="1" as="geometry">
            <mxPoint x="440" y="631" as="sourcePoint" />
          </mxGeometry>
        </mxCell>
        <mxCell id="s-t7A4aG990jGZDkexvC-25" style="edgeStyle=orthogonalEdgeStyle;rounded=0;orthogonalLoop=1;jettySize=auto;html=1;entryX=0.5;entryY=0;entryDx=0;entryDy=0;" edge="1" parent="1" source="17ea667e15c223fc-3" target="s-t7A4aG990jGZDkexvC-23">
          <mxGeometry relative="1" as="geometry" />
        </mxCell>
        <mxCell id="17ea667e15c223fc-3" value="OR" style="ellipse;whiteSpace=wrap;html=1;rounded=1;shadow=0;labelBackgroundColor=none;strokeWidth=1;fontFamily=Verdana;fontSize=12;align=center;" parent="1" vertex="1">
          <mxGeometry x="540" y="601" width="40" height="40" as="geometry" />
        </mxCell>
        <mxCell id="s-t7A4aG990jGZDkexvC-2" style="edgeStyle=orthogonalEdgeStyle;rounded=0;orthogonalLoop=1;jettySize=auto;html=1;entryX=0;entryY=0.5;entryDx=0;entryDy=0;" edge="1" parent="1" source="s-t7A4aG990jGZDkexvC-1" target="17ea667e15c223fc-2">
          <mxGeometry relative="1" as="geometry" />
        </mxCell>
        <mxCell id="s-t7A4aG990jGZDkexvC-1" value="Администратор" style="ellipse;whiteSpace=wrap;html=1;fillColor=#fff2cc;strokeColor=#d6b656;" vertex="1" parent="1">
          <mxGeometry x="320" y="120" width="130" height="66" as="geometry" />
        </mxCell>
        <mxCell id="s-t7A4aG990jGZDkexvC-4" style="edgeStyle=orthogonalEdgeStyle;rounded=0;orthogonalLoop=1;jettySize=auto;html=1;entryX=0;entryY=0.5;entryDx=0;entryDy=0;" edge="1" parent="1" source="s-t7A4aG990jGZDkexvC-3" target="17ea667e15c223fc-2">
          <mxGeometry relative="1" as="geometry">
            <mxPoint x="500" y="200" as="targetPoint" />
          </mxGeometry>
        </mxCell>
        <mxCell id="s-t7A4aG990jGZDkexvC-3" value="Административная панель системы LN" style="rounded=0;whiteSpace=wrap;html=1;strokeColor=#6c8ebf;fillColor=#ADCBFF;" vertex="1" parent="1">
          <mxGeometry x="330" y="210" width="120" height="70" as="geometry" />
        </mxCell>
        <mxCell id="s-t7A4aG990jGZDkexvC-5" value="Реестр АРМ" style="rounded=0;whiteSpace=wrap;html=1;strokeColor=#6c8ebf;fillColor=#ADCBFF;" vertex="1" parent="1">
          <mxGeometry x="660" y="160" width="130" height="80" as="geometry" />
        </mxCell>
        <mxCell id="s-t7A4aG990jGZDkexvC-10" value="" style="edgeStyle=orthogonalEdgeStyle;rounded=0;orthogonalLoop=1;jettySize=auto;html=1;" edge="1" parent="1" source="s-t7A4aG990jGZDkexvC-7" target="s-t7A4aG990jGZDkexvC-9">
          <mxGeometry relative="1" as="geometry" />
        </mxCell>
        <mxCell id="s-t7A4aG990jGZDkexvC-7" value="Реестр открыт" style="shape=hexagon;perimeter=hexagonPerimeter;whiteSpace=wrap;html=1;rounded=0;shadow=0;labelBackgroundColor=none;strokeWidth=1;fontFamily=Verdana;fontSize=12;align=center;fillColor=#f8cecc;strokeColor=#b85450;" vertex="1" parent="1">
          <mxGeometry x="500" y="290" width="120" height="80" as="geometry" />
        </mxCell>
        <mxCell id="s-t7A4aG990jGZDkexvC-12" style="edgeStyle=orthogonalEdgeStyle;rounded=0;orthogonalLoop=1;jettySize=auto;html=1;exitX=1;exitY=0.5;exitDx=0;exitDy=0;entryX=0;entryY=0.5;entryDx=0;entryDy=0;" edge="1" parent="1" source="s-t7A4aG990jGZDkexvC-9" target="s-t7A4aG990jGZDkexvC-11">
          <mxGeometry relative="1" as="geometry" />
        </mxCell>
        <mxCell id="s-t7A4aG990jGZDkexvC-21" value="" style="edgeStyle=orthogonalEdgeStyle;rounded=0;orthogonalLoop=1;jettySize=auto;html=1;" edge="1" parent="1" source="s-t7A4aG990jGZDkexvC-9" target="17ea667e15c223fc-3">
          <mxGeometry relative="1" as="geometry" />
        </mxCell>
        <mxCell id="s-t7A4aG990jGZDkexvC-9" value="Создание" style="rounded=1;whiteSpace=wrap;html=1;shadow=0;labelBackgroundColor=none;strokeWidth=1;fontFamily=Verdana;fontSize=12;align=center;fillColor=#d5e8d4;strokeColor=#82b366;" vertex="1" parent="1">
          <mxGeometry x="500" y="420" width="120" height="80" as="geometry" />
        </mxCell>
        <mxCell id="s-t7A4aG990jGZDkexvC-14" style="edgeStyle=orthogonalEdgeStyle;rounded=0;orthogonalLoop=1;jettySize=auto;html=1;exitX=0.5;exitY=1;exitDx=0;exitDy=0;entryX=0.5;entryY=0;entryDx=0;entryDy=0;" edge="1" parent="1" source="s-t7A4aG990jGZDkexvC-11" target="s-t7A4aG990jGZDkexvC-13">
          <mxGeometry relative="1" as="geometry" />
        </mxCell>
        <mxCell id="s-t7A4aG990jGZDkexvC-11" value="АРМ" style="rounded=0;whiteSpace=wrap;html=1;strokeColor=#6c8ebf;fillColor=#ADCBFF;" vertex="1" parent="1">
          <mxGeometry x="670" y="420" width="130" height="80" as="geometry" />
        </mxCell>
        <mxCell id="s-t7A4aG990jGZDkexvC-16" value="" style="edgeStyle=orthogonalEdgeStyle;rounded=0;orthogonalLoop=1;jettySize=auto;html=1;" edge="1" parent="1" source="s-t7A4aG990jGZDkexvC-13" target="s-t7A4aG990jGZDkexvC-15">
          <mxGeometry relative="1" as="geometry" />
        </mxCell>
        <mxCell id="s-t7A4aG990jGZDkexvC-13" value="Общие настройки" style="rounded=0;whiteSpace=wrap;html=1;strokeColor=#6c8ebf;fillColor=#ADCBFF;" vertex="1" parent="1">
          <mxGeometry x="670" y="522" width="130" height="80" as="geometry" />
        </mxCell>
        <mxCell id="s-t7A4aG990jGZDkexvC-18" value="" style="edgeStyle=orthogonalEdgeStyle;rounded=0;orthogonalLoop=1;jettySize=auto;html=1;" edge="1" parent="1" source="s-t7A4aG990jGZDkexvC-15" target="s-t7A4aG990jGZDkexvC-17">
          <mxGeometry relative="1" as="geometry" />
        </mxCell>
        <mxCell id="s-t7A4aG990jGZDkexvC-15" value="Виджеты/алерты" style="rounded=0;whiteSpace=wrap;html=1;strokeColor=#6c8ebf;fillColor=#ADCBFF;" vertex="1" parent="1">
          <mxGeometry x="830" y="522" width="130" height="80" as="geometry" />
        </mxCell>
        <mxCell id="s-t7A4aG990jGZDkexvC-20" value="" style="edgeStyle=orthogonalEdgeStyle;rounded=0;orthogonalLoop=1;jettySize=auto;html=1;" edge="1" parent="1" source="s-t7A4aG990jGZDkexvC-17" target="s-t7A4aG990jGZDkexvC-19">
          <mxGeometry relative="1" as="geometry" />
        </mxCell>
        <mxCell id="s-t7A4aG990jGZDkexvC-17" value="Отчеты" style="rounded=0;whiteSpace=wrap;html=1;strokeColor=#6c8ebf;fillColor=#ADCBFF;" vertex="1" parent="1">
          <mxGeometry x="990" y="522" width="130" height="80" as="geometry" />
        </mxCell>
        <mxCell id="s-t7A4aG990jGZDkexvC-19" value="Модули" style="rounded=0;whiteSpace=wrap;html=1;strokeColor=#6c8ebf;fillColor=#ADCBFF;" vertex="1" parent="1">
          <mxGeometry x="1150" y="522" width="130" height="80" as="geometry" />
        </mxCell>
        <mxCell id="s-t7A4aG990jGZDkexvC-26" style="edgeStyle=orthogonalEdgeStyle;rounded=0;orthogonalLoop=1;jettySize=auto;html=1;entryX=0;entryY=0.5;entryDx=0;entryDy=0;fontSize=11;exitX=0;exitY=0.5;exitDx=0;exitDy=0;" edge="1" parent="1" source="s-t7A4aG990jGZDkexvC-22" target="s-t7A4aG990jGZDkexvC-9">
          <mxGeometry relative="1" as="geometry" />
        </mxCell>
        <mxCell id="s-t7A4aG990jGZDkexvC-28" style="edgeStyle=orthogonalEdgeStyle;rounded=0;orthogonalLoop=1;jettySize=auto;html=1;entryX=0.5;entryY=0;entryDx=0;entryDy=0;fontSize=11;exitX=0.5;exitY=1;exitDx=0;exitDy=0;" edge="1" parent="1" source="s-t7A4aG990jGZDkexvC-22" target="s-t7A4aG990jGZDkexvC-27">
          <mxGeometry relative="1" as="geometry" />
        </mxCell>
        <mxCell id="s-t7A4aG990jGZDkexvC-22" value="Статус &lt;br&gt;&quot;Черновик&quot;, валидация обязательных полей не пройдена" style="shape=hexagon;perimeter=hexagonPerimeter;whiteSpace=wrap;html=1;rounded=0;shadow=0;labelBackgroundColor=none;strokeWidth=1;fontFamily=Verdana;fontSize=11;align=center;fillColor=#f8cecc;strokeColor=#b85450;" vertex="1" parent="1">
          <mxGeometry x="340" y="679" width="120" height="80" as="geometry" />
        </mxCell>
        <mxCell id="s-t7A4aG990jGZDkexvC-34" style="edgeStyle=orthogonalEdgeStyle;rounded=0;orthogonalLoop=1;jettySize=auto;html=1;entryX=0.5;entryY=0;entryDx=0;entryDy=0;fontSize=11;exitX=0.5;exitY=1;exitDx=0;exitDy=0;" edge="1" parent="1" source="s-t7A4aG990jGZDkexvC-23" target="s-t7A4aG990jGZDkexvC-27">
          <mxGeometry relative="1" as="geometry" />
        </mxCell>
        <mxCell id="s-t7A4aG990jGZDkexvC-23" value="Статус&lt;br&gt;&amp;nbsp;&quot;Готов к работе&quot;, валидация обязательных полей пройдена" style="shape=hexagon;perimeter=hexagonPerimeter;whiteSpace=wrap;html=1;rounded=0;shadow=0;labelBackgroundColor=none;strokeWidth=1;fontFamily=Verdana;fontSize=11;align=center;fillColor=#f8cecc;strokeColor=#b85450;" vertex="1" parent="1">
          <mxGeometry x="640" y="680" width="120" height="79" as="geometry" />
        </mxCell>
        <mxCell id="s-t7A4aG990jGZDkexvC-30" value="" style="edgeStyle=orthogonalEdgeStyle;rounded=0;orthogonalLoop=1;jettySize=auto;html=1;fontSize=11;" edge="1" parent="1" source="s-t7A4aG990jGZDkexvC-27" target="s-t7A4aG990jGZDkexvC-29">
          <mxGeometry relative="1" as="geometry" />
        </mxCell>
        <mxCell id="s-t7A4aG990jGZDkexvC-36" value="" style="edgeStyle=orthogonalEdgeStyle;rounded=0;orthogonalLoop=1;jettySize=auto;html=1;fontSize=11;" edge="1" parent="1" source="s-t7A4aG990jGZDkexvC-27" target="s-t7A4aG990jGZDkexvC-35">
          <mxGeometry relative="1" as="geometry" />
        </mxCell>
        <mxCell id="s-t7A4aG990jGZDkexvC-27" value="Создается" style="rounded=1;whiteSpace=wrap;html=1;shadow=0;labelBackgroundColor=none;strokeWidth=1;fontFamily=Verdana;fontSize=12;align=center;fillColor=#d5e8d4;strokeColor=#82b366;" vertex="1" parent="1">
          <mxGeometry x="500" y="850" width="120" height="80" as="geometry" />
        </mxCell>
        <mxCell id="s-t7A4aG990jGZDkexvC-29" value="Шаблон АРМ" style="rounded=0;whiteSpace=wrap;html=1;strokeColor=#6c8ebf;fillColor=#ADCBFF;" vertex="1" parent="1">
          <mxGeometry x="660" y="850" width="130" height="80" as="geometry" />
        </mxCell>
        <mxCell id="s-t7A4aG990jGZDkexvC-35" value="АРМ создан" style="shape=hexagon;perimeter=hexagonPerimeter;whiteSpace=wrap;html=1;rounded=0;shadow=0;labelBackgroundColor=none;strokeWidth=1;fontFamily=Verdana;fontSize=11;align=center;fillColor=#f8cecc;strokeColor=#b85450;" vertex="1" parent="1">
          <mxGeometry x="500" y="980" width="120" height="80" as="geometry" />
        </mxCell>
      </root>
    </mxGraphModel>
  </diagram>
</mxfile>
